<svg id="Group_426" data-name="Group 426" xmlns="http://www.w3.org/2000/svg" width="540.985" height="312.544" viewBox="0 0 540.985 312.544">
  <path id="Path_577" data-name="Path 577" d="M0,199.066,99.961,486H0Z" transform="translate(0 -173.511)" fill="#307e74"/>
  <path id="Path_579" data-name="Path 579" d="M0,0H82.831L259,312.489H173.411Z" transform="translate(44 0)" fill="rgba(90,150,110,0.61)"/>
  <path id="Path_578" data-name="Path 578" d="M0,0H45.152L217.935,312.489H98.962L0,129.746Z" transform="translate(0 0)" fill="#2f4858"/>
  <path id="Path_582" data-name="Path 582" d="M-2.34,0H233.428L411.985,312.489H173.625Z" transform="translate(129 0)" fill="rgba(38,99,110,0.6)"/>
  <path id="Path_583" data-name="Path 583" d="M-7.029,296.75H85.443L228.79-15.794H130.571Z" transform="translate(311 15.794)" fill="rgba(48,126,116,0.49)"/>
  <path id="Path_581" data-name="Path 581" d="M127.781,0H82.656L-73.877,312.489H42.705L188.438,0Z" transform="translate(174.882 0)" fill="rgba(149,170,99,0.79)"/>
  <path id="Path_580" data-name="Path 580" d="M222.117,0H143.579L-2.5,312.489H84.647Z" transform="translate(219.341 0)" fill="rgba(227,201,139,0.68)"/>
</svg>
