<svg xmlns="http://www.w3.org/2000/svg" viewBox="0 0 127.5 79.73"><defs><style>.cls-1{fill:#231815;}.cls-2{fill:#d9b766;}.cls-3{fill:#b4b4b5;}</style></defs><g id="Layer_2" data-name="Layer 2"><g id="圖層_1" data-name="圖層 1"><path class="cls-1" d="M67.79.85q-.66.42-1.32.93c-.45.35-.9.73-1.36,1.14l-.62.55c-.77.69-1.18,1.06-1.23,1.12l0,0a.4.4,0,0,1-.14.13h-.58a.11.11,0,0,1-.07-.06.17.17,0,0,1,0-.1.66.66,0,0,1,.11-.24.48.48,0,0,1,.2-.14,5.46,5.46,0,0,0,.74-.56l.44-.38c1.35-1.12,2.41-2,3.18-2.51S68.35,0,68.51,0a.23.23,0,0,1,.12.1.32.32,0,0,1,0,.18c0,.12,0,.22,0,.32V.76q0,.09-.51.9t-.9,1.59c.66-.56,1.18-1,1.57-1.26a4.9,4.9,0,0,1,1-.57,1.18,1.18,0,0,1,.32-.16.32.32,0,0,1,.21,0,.23.23,0,0,1,.19.18.8.8,0,0,1,0,.4,5.23,5.23,0,0,1-.58,1.06l-.27.42-.32.55a1.07,1.07,0,0,0-.12.28.17.17,0,0,0,0,.14.1.1,0,0,0,.08.07c.07,0,.14,0,.23-.08s.15-.1.2-.09a.1.1,0,0,1,.08.06.11.11,0,0,1,0,.1.35.35,0,0,1-.1.15,1,1,0,0,1-.21.19,1.11,1.11,0,0,1-.41.18.93.93,0,0,1-.36.05s0,0-.06,0l-.06,0h-.23a.25.25,0,0,1-.19-.19.84.84,0,0,1,0-.41,10.62,10.62,0,0,1,1.07-1.67c.2-.29.37-.52.48-.69a15.67,15.67,0,0,0-1.61,1.22l-.88.72a1.89,1.89,0,0,1-.43.26.54.54,0,0,1-.32,0,.4.4,0,0,1-.21-.17.35.35,0,0,1-.08-.25c.12-.24.3-.6.53-1.08a9.27,9.27,0,0,1,.47-.87C67.37,1.45,67.57,1.16,67.79.85Z"/><path class="cls-1" d="M72.14,5.1q-.44.25-.78.42a1.55,1.55,0,0,1-.51.16h-.32a.75.75,0,0,1-.31,0,.4.4,0,0,1-.17-.26.49.49,0,0,1,0-.3,1.43,1.43,0,0,1,.19-.26,3.42,3.42,0,0,1,.36-.43,7,7,0,0,1,.61-.61,1.46,1.46,0,0,1,.39-.28.32.32,0,0,1,.14,0h.08l.08,0a.51.51,0,0,1,.35,0,.27.27,0,0,1,.11.23.73.73,0,0,1,0,.25,2.54,2.54,0,0,1-.39.36l-.06,0-.34.28a2.73,2.73,0,0,0-.43.39.25.25,0,0,0,0,.08.07.07,0,0,0,0,0c.09.05.39-.1.91-.43.28-.19.51-.33.67-.43A.64.64,0,0,1,73,4.25a1,1,0,0,1,.24,0,.19.19,0,0,1,.1.18.83.83,0,0,1-.08.31,4.17,4.17,0,0,1-.4.57,2.93,2.93,0,0,0-.38.53.65.65,0,0,0-.07.21.63.63,0,0,1,0,.15c0,.08-.15.14-.34.18a.63.63,0,0,1-.41,0c-.05,0-.09-.09-.12-.19a.44.44,0,0,1,0-.23s.13-.2.35-.51S72.07,5.19,72.14,5.1Z"/><path class="cls-1" d="M75,5.84a.2.2,0,0,0-.08,0,.34.34,0,0,0-.06.06,1.67,1.67,0,0,0,0,.51,1.17,1.17,0,0,1-.15.66.87.87,0,0,1-.71.36A1.42,1.42,0,0,1,73,7.23a1.11,1.11,0,0,1-.38-.36.26.26,0,0,1,0-.3.56.56,0,0,1,.38-.21.5.5,0,0,1,.39,0,.4.4,0,0,1,.1.35c0,.19,0,.3.07.34a.1.1,0,0,0,.09,0A.13.13,0,0,0,73.67,7a1.28,1.28,0,0,0,.2-.75,1,1,0,0,1,.06-.55.42.42,0,0,1,.17-.15.7.7,0,0,1,.29-.1,3.23,3.23,0,0,1,.69-.07,1,1,0,0,1,.45.09.29.29,0,0,1,.13.17.19.19,0,0,1,0,.18.92.92,0,0,1-.28.32.2.2,0,0,1-.24,0A.3.3,0,0,1,75,6,.52.52,0,0,1,75,5.84Z"/><path class="cls-1" d="M75.87,7.07l0,0a.35.35,0,0,1-.11-.11.08.08,0,0,1,0-.08s.09,0,.22-.06a4.07,4.07,0,0,1,.48,0l1-.43a.51.51,0,0,1,.29-.05s0,0,.08,0a.18.18,0,0,0,.09,0l.11,0,.19.06a.21.21,0,0,1,.06.1.25.25,0,0,1,0,.14l0,.06,0,0a1.38,1.38,0,0,1-.38.17,5,5,0,0,0-.66.31l.15.14c.13.13.18.22.14.27a.41.41,0,0,1-.24.11l-.1,0,0,0a.26.26,0,0,1-.26-.06l-.09-.07-.16-.14a2.79,2.79,0,0,0-.39.2,1.18,1.18,0,0,0-.26.21.3.3,0,0,0-.08.22.31.31,0,0,0,.12.19.87.87,0,0,0,.29.15.85.85,0,0,1,.23.09.21.21,0,0,1,.06.1.15.15,0,0,1,0,.11c-.06.08-.24.09-.54.06a1.52,1.52,0,0,1-.8-.34.57.57,0,0,1-.21-.47.74.74,0,0,1,.17-.52,1.35,1.35,0,0,1,.36-.25A5.23,5.23,0,0,0,75.87,7.07Z"/><path class="cls-1" d="M78.38,10.18a3.09,3.09,0,0,1-.63,0,1.63,1.63,0,0,1-.5-.16,3.63,3.63,0,0,1-.44-.25l-.25-.16a.31.31,0,0,1-.06-.27.57.57,0,0,1,.17-.3.67.67,0,0,1,.27-.14,4.13,4.13,0,0,1,.5-.12,2.8,2.8,0,0,1,.77-.05,4.34,4.34,0,0,1,.87.14,3.42,3.42,0,0,1,.59.21,1.53,1.53,0,0,1,.39.26,1.11,1.11,0,0,1,.25.41c0,.15,0,.26,0,.32L80,10.2l-.47.27c-.28.16-.52.3-.72.43a2.39,2.39,0,0,0-.34.23.36.36,0,0,0-.08.12.28.28,0,0,1,0,.1.21.21,0,0,1-.15,0,.3.3,0,0,1-.17-.08.29.29,0,0,1-.06-.1.35.35,0,0,0-.06-.09l0,0,0,0a.19.19,0,0,1,0-.24,1.46,1.46,0,0,1,.31-.38l.13-.11Zm-.91-.48a.8.8,0,0,0,.48.16,3.56,3.56,0,0,0,.86,0,4.24,4.24,0,0,0,.62-.1.77.77,0,0,0,.32-.13,0,0,0,0,0,0,0,.05.05,0,0,0,0,0,.86.86,0,0,0-.46-.15,4.64,4.64,0,0,0-.86,0,3.07,3.07,0,0,0-.58.07.83.83,0,0,0-.34.16s0,.05,0,.06S77.45,9.68,77.47,9.7Z"/><path class="cls-1" d="M80.84,12.41a2.77,2.77,0,0,0-.79.05l-.49.08a1.3,1.3,0,0,1-.37-.08.64.64,0,0,1-.28-.17.37.37,0,0,1,0-.32.43.43,0,0,1,.14-.28.25.25,0,0,1,.21,0,.91.91,0,0,0,.22.05.93.93,0,0,0,.38-.1,2.44,2.44,0,0,0,.5-.29l.08-.09a.11.11,0,0,0,0-.11.52.52,0,0,1-.07-.16.13.13,0,0,1,0-.11c.06-.05.15-.05.28,0a.55.55,0,0,1,.29.2.62.62,0,0,0,.2.15l.15.09a.14.14,0,0,1,0,.17.68.68,0,0,1-.21.21,2.75,2.75,0,0,1-.36.2,6.57,6.57,0,0,1-.66.27l.21,0a3.62,3.62,0,0,1,.78-.05,1,1,0,0,1,.24-.24,1.11,1.11,0,0,1,.32-.17.47.47,0,0,1,.26,0l.34.12.15.08a.32.32,0,0,1,0,.26.74.74,0,0,1-.17.24l-.22,0a.63.63,0,0,0-.31.11.3.3,0,0,0-.09.17.41.41,0,0,1-.14.21l-.1,0h-.08a.68.68,0,0,1-.19-.1c-.1-.07-.16-.11-.17-.14a.17.17,0,0,1,0-.13A.37.37,0,0,1,80.84,12.41Z"/><path class="cls-1" d="M83.37,14.15a4.34,4.34,0,0,0,.49-.71,1.7,1.7,0,0,0,.22-.6,1.39,1.39,0,0,0,0-.44c0-.17,0-.26,0-.29s.17,0,.33.13a1,1,0,0,1,.32.32.85.85,0,0,1,.1.46,2.08,2.08,0,0,1-.09.6,2.16,2.16,0,0,1-.41.74,2.6,2.6,0,0,1-.69.56,2.67,2.67,0,0,1-.73.27,3.21,3.21,0,0,1-.83.08,2.05,2.05,0,0,1-.57-.14l-.09,0a2.25,2.25,0,0,1-.58-.29,1.51,1.51,0,0,1-.36-.36A.57.57,0,0,1,80.4,14a.66.66,0,0,1,.33-.37,1.79,1.79,0,0,1,.42-.14,2.52,2.52,0,0,1,.48-.09,2.26,2.26,0,0,1,.82.2A4.34,4.34,0,0,1,83.37,14.15Zm-.26.22a3.58,3.58,0,0,0-1-.22,1.58,1.58,0,0,0-.78.12q-.11.06-.12.12a.16.16,0,0,0,0,.15.67.67,0,0,0,.63.3,1.74,1.74,0,0,0,1-.23l.17-.11Z"/><path class="cls-1" d="M83,19.47a22.83,22.83,0,0,0,1.2,3.28c.39.78.71,1.16.95,1.12s.25-.15.3-.38a3.35,3.35,0,0,0,0-1c0-.13-.05-.29-.09-.47l-.06-.36a3.63,3.63,0,0,1,0-.61.94.94,0,0,1,.08-.38.76.76,0,0,1,.11-.16,1.53,1.53,0,0,0,.14-.17.52.52,0,0,0,0-.3.71.71,0,0,0,0-.12.27.27,0,0,1,.07-.2.31.31,0,0,1,.19-.09,1,1,0,0,1,.56.12,3.16,3.16,0,0,1,.65.49,5.56,5.56,0,0,1,.72.91,9.68,9.68,0,0,1,.68,1.2,7.22,7.22,0,0,1,.29.72,4.07,4.07,0,0,1,.16.62.75.75,0,0,1,0,.41.3.3,0,0,1-.23.17.78.78,0,0,1-.44-.19L88,23.94l-.15-.07c-.13-.06-.2-.13-.22-.21a.19.19,0,0,1,0-.12.26.26,0,0,1,.13-.06h.09s.08,0,.1,0a.25.25,0,0,0,0-.13,2.14,2.14,0,0,0-.09-.33c0-.15-.11-.32-.19-.51s-.25-.62-.35-.86-.21-.45-.29-.6a2.83,2.83,0,0,0-.41-.58.44.44,0,0,0-.37-.16c-.1,0-.17.09-.2.22a1.85,1.85,0,0,0,0,.62l.09.42c0,.23.08.44.11.63A5.34,5.34,0,0,1,86.33,24a.75.75,0,0,1-.63.66.72.72,0,0,1-.43-.05,1,1,0,0,1-.4-.28s-.07-.08-.14-.15a5.57,5.57,0,0,0-.61-.65,3,3,0,0,1-.63-.86.89.89,0,0,0,0-.1,24,24,0,0,1-1-2.32,9.61,9.61,0,0,1-.5-1.56.49.49,0,0,1,0-.25.13.13,0,0,1,.11-.1c.07,0,.19.07.36.25a1.18,1.18,0,0,0,.33.29l.06,0a.56.56,0,0,1,.27.12c.19.18.35.34.47.48a.87.87,0,0,1,.19.28.13.13,0,0,1,0,.09.13.13,0,0,1-.06.05c-.06,0-.19-.07-.37-.22Z"/><path class="cls-1" d="M84.34,26.32a.51.51,0,0,0-.21.2.55.55,0,0,0-.08.29.75.75,0,0,0,.1.39,1.18,1.18,0,0,1,.11.23.13.13,0,0,1,0,.09.1.1,0,0,1-.09,0c-.1,0-.21-.13-.33-.37a1.33,1.33,0,0,1-.16-.62,2.38,2.38,0,0,1,.06-.4,2.72,2.72,0,0,0,.07-.46.36.36,0,0,1,.21-.32,1,1,0,0,1,.53-.11,1.64,1.64,0,0,1,.64.2,2.81,2.81,0,0,1,.66.44,2.9,2.9,0,0,1,.53.68,1.25,1.25,0,0,1,.21.57.37.37,0,0,1-.15.28.68.68,0,0,1-.4.1.88.88,0,0,1-.34-.1h0l-.19,0-.18-.06a1.52,1.52,0,0,1-.54-.4A1.91,1.91,0,0,1,84.34,26.32Zm.31-.08a2,2,0,0,0,.54.59,1.22,1.22,0,0,0,.6.24.23.23,0,0,0,.13,0A.07.07,0,0,0,86,27c0-.15-.12-.31-.38-.46A2,2,0,0,0,84.65,26.24Z"/><path class="cls-1" d="M84.14,29a.58.58,0,0,0-.23.18.66.66,0,0,0-.12.27.72.72,0,0,0,.06.4c.05.15.08.22.08.24a.13.13,0,0,1-.05.09.11.11,0,0,1-.09,0c-.1,0-.2-.15-.29-.4a1.56,1.56,0,0,1-.09-.64c0-.07,0-.2.12-.39a4.53,4.53,0,0,0,.12-.44.38.38,0,0,1,.24-.3,1,1,0,0,1,.54,0,1.52,1.52,0,0,1,.61.26,2.62,2.62,0,0,1,.61.53,3,3,0,0,1,.44.72,1.16,1.16,0,0,1,.14.6.34.34,0,0,1-.18.26.65.65,0,0,1-.4.05.79.79,0,0,1-.33-.13l0,0-.17-.07a.57.57,0,0,1-.17-.07,1.54,1.54,0,0,1-.5-.46A2,2,0,0,1,84.14,29Zm.32,0a1.81,1.81,0,0,0,.47.65,1.13,1.13,0,0,0,.56.31.25.25,0,0,0,.13,0,.07.07,0,0,0,0-.07c0-.15-.08-.32-.32-.5A2.06,2.06,0,0,0,84.46,29Z"/><path class="cls-1" d="M85.41,32.87a4.5,4.5,0,0,0,.85-.15,1.68,1.68,0,0,0,.57-.27,1.64,1.64,0,0,0,.3-.33c.09-.15.16-.21.21-.2s.11.12.14.32a1.16,1.16,0,0,1,0,.46.91.91,0,0,1-.26.39,1.55,1.55,0,0,1-.48.36,2.11,2.11,0,0,1-.81.24,2.54,2.54,0,0,1-.89-.1,2.82,2.82,0,0,1-.71-.32,3.46,3.46,0,0,1-.64-.53,2.27,2.27,0,0,1-.3-.5l0-.09a2.39,2.39,0,0,1-.21-.62,1.38,1.38,0,0,1,0-.5.58.58,0,0,1,.29-.38.7.7,0,0,1,.5,0,1.77,1.77,0,0,1,.39.2,1.63,1.63,0,0,1,.84,1A4.25,4.25,0,0,1,85.41,32.87Zm-.34,0a3.07,3.07,0,0,0-.59-.89,1.5,1.5,0,0,0-.64-.47.25.25,0,0,0-.17,0,.19.19,0,0,0-.09.12.71.71,0,0,0,.24.66,1.71,1.71,0,0,0,.83.5l.2.05Z"/><path class="cls-1" d="M81.81,37.94a3.84,3.84,0,0,1-.11.69,2.1,2.1,0,0,1-.24.5,2,2,0,0,1-.31.34,4.4,4.4,0,0,1-.51.35l-.12.06a1.07,1.07,0,0,0-.41.33s-.09,0-.18,0a.92.92,0,0,1-.28-.14.53.53,0,0,1-.2-.27.33.33,0,0,1,0-.29,2.35,2.35,0,0,1,.56-.35l.4-.22a3.38,3.38,0,0,0,.48-.33,2.14,2.14,0,0,0,.35-.4,1.49,1.49,0,0,0,.24-.55,1.62,1.62,0,0,0,0-.62,3.09,3.09,0,0,0-.13-.45c-.07-.2-.08-.33,0-.38a.17.17,0,0,1,.1-.07.12.12,0,0,1,.1,0,11.21,11.21,0,0,1,1,2l0,.09c.06.12.12.27.2.45a1.32,1.32,0,0,0,.21.41.39.39,0,0,0,.13,0,.64.64,0,0,1,.15.05,1.45,1.45,0,0,1,.21.63c.06.26.11.48.16.65a1.6,1.6,0,0,0,.07.28c.16.6.18,1,0,1.2,0,0-.1,0-.23,0a.87.87,0,0,1-.29-.12.75.75,0,0,1-.21-.25,1.61,1.61,0,0,1-.15-.41c-.21-.81-.39-1.48-.55-2A13.07,13.07,0,0,0,81.81,37.94Z"/><path class="cls-1" d="M78.2,42a2.59,2.59,0,0,1,0-.63,1.75,1.75,0,0,1,.14-.51,4.73,4.73,0,0,1,.23-.45l.15-.25A.28.28,0,0,1,79,40a.55.55,0,0,1,.31.16.85.85,0,0,1,.15.26c0,.12.09.28.14.49a3.3,3.3,0,0,1,.08.77,4.71,4.71,0,0,1-.11.87,3.25,3.25,0,0,1-.19.6,1.26,1.26,0,0,1-.25.41,1,1,0,0,1-.4.26c-.15,0-.25,0-.31,0a2.29,2.29,0,0,1-.18-.28L78,43.1c-.17-.28-.33-.51-.46-.7s-.21-.31-.24-.34L77.13,42l-.1-.05a.21.21,0,0,1,0-.15.28.28,0,0,1,.07-.17.29.29,0,0,1,.1-.06l.09-.06,0-.06,0,0a.21.21,0,0,1,.24,0,1.56,1.56,0,0,1,.39.3.65.65,0,0,1,.11.12Zm.45-.93a.81.81,0,0,0-.14.49,4.28,4.28,0,0,0,0,.86,5.29,5.29,0,0,0,.13.61.89.89,0,0,0,.14.32h0l0,0a1.06,1.06,0,0,0,.12-.47A4.77,4.77,0,0,0,79,42a2.9,2.9,0,0,0-.1-.58.91.91,0,0,0-.17-.33l-.06,0S78.66,41,78.65,41Z"/><path class="cls-1" d="M75.94,44.2a9,9,0,0,1,.15-1.38.77.77,0,0,1,.24-.48.21.21,0,0,1,.18-.05.32.32,0,0,1,.16.12,1.8,1.8,0,0,1,.15.31,6.5,6.5,0,0,1,.21.63c.1.31.18.58.24.82a3.67,3.67,0,0,1,.09.41.83.83,0,0,1-.07.31.62.62,0,0,1-.15.28s-.13,0-.22,0a.62.62,0,0,1-.2-.13s0-.2-.12-.54-.15-.67-.24-1a4.47,4.47,0,0,0-.16,1,1.31,1.31,0,0,0,.08.64.48.48,0,0,1,0,.37.66.66,0,0,1-.17.31.16.16,0,0,1-.15,0,.22.22,0,0,1-.13-.08,2.23,2.23,0,0,1-.2-.53,2.28,2.28,0,0,0-.31-.68.68.68,0,0,0-.28-.24.21.21,0,0,0-.24,0,.31.31,0,0,0-.1.23.94.94,0,0,0,0,.37,1.89,1.89,0,0,1,.37.28,3.16,3.16,0,0,1,.38.43.75.75,0,0,1,.16.52.48.48,0,0,1-.19.39c-.06,0-.15,0-.27,0a1.26,1.26,0,0,1-.34-.32l-.18-.24a2.46,2.46,0,0,1-.29-.48.39.39,0,0,1,0-.28,2.46,2.46,0,0,1,0-1,1,1,0,0,1,.36-.61.45.45,0,0,1,.23-.11.81.81,0,0,1,.3,0,.46.46,0,0,1,.2.08.66.66,0,0,1,.18.19l.06.08.14.19Z"/><path class="cls-1" d="M72.46,47a7,7,0,0,0,.1-1.12,5.43,5.43,0,0,1,0-.58l.14-.17a.81.81,0,0,1,.16-.14.24.24,0,0,1,.26,0,1.4,1.4,0,0,1,.3.43c.21.41.38.76.5,1a2.53,2.53,0,0,1,.2.54.74.74,0,0,1-.13.38.81.81,0,0,1-.24.3.2.2,0,0,1-.17,0,.24.24,0,0,1-.13-.13.14.14,0,0,1,0-.06v-.08a5,5,0,0,0-.23-.65c-.08-.21-.18-.42-.28-.62L72.84,46a10.14,10.14,0,0,1-.09,1.13,3.93,3.93,0,0,1-.17.78.84.84,0,0,1-.15.19.87.87,0,0,1-.22.17.22.22,0,0,1-.16,0,.13.13,0,0,1-.1-.07,2.33,2.33,0,0,1-.07-.59c0-.21,0-.38,0-.51-.07-.83-.13-1.46-.18-1.88a7.37,7.37,0,0,0-.2-1,.92.92,0,0,0-.2.63c0,.25,0,.39-.06.41h-.08a.19.19,0,0,1-.07-.08,1.27,1.27,0,0,1-.06-.4,2.69,2.69,0,0,1,.06-.57,2.11,2.11,0,0,1,.19-.47.68.68,0,0,1,.22-.26c.06,0,.15,0,.26.08a.91.91,0,0,1,.28.33,4,4,0,0,1,.2,1C72.28,45.42,72.37,46.13,72.46,47Z"/><path class="cls-1" d="M69.93,47a.57.57,0,0,0-.27-.13.63.63,0,0,0-.3,0,.71.71,0,0,0-.32.24,1,1,0,0,1-.17.18.14.14,0,0,1-.11,0,.13.13,0,0,1-.06-.07c0-.1,0-.25.21-.44a1.39,1.39,0,0,1,.51-.39,2.24,2.24,0,0,1,.4-.09,2.94,2.94,0,0,0,.45-.11.37.37,0,0,1,.38.08,1,1,0,0,1,.3.45,1.61,1.61,0,0,1,.06.66,2.78,2.78,0,0,1-.17.78,3.15,3.15,0,0,1-.42.74,1.23,1.23,0,0,1-.46.41.36.36,0,0,1-.32,0,.7.7,0,0,1-.23-.33.72.72,0,0,1,0-.36v0a.89.89,0,0,0,0-.19c0-.08,0-.14,0-.18a1.66,1.66,0,0,1,.17-.66A1.94,1.94,0,0,1,69.93,47Zm.18.25a2.11,2.11,0,0,0-.34.73,1.15,1.15,0,0,0,0,.64.35.35,0,0,0,.07.11.1.1,0,0,0,.09,0c.14,0,.24-.23.29-.53A2.07,2.07,0,0,0,70.11,47.27Z"/><path class="cls-1" d="M67,48.77a3,3,0,0,0,.26-.74c.06-.29.1-.46.11-.49a1.38,1.38,0,0,1,.22-.3c.12-.12.2-.19.26-.2a.42.42,0,0,1,.32.09.45.45,0,0,1,.2.23.23.23,0,0,1-.08.2,1.26,1.26,0,0,0-.14.19.83.83,0,0,0,0,.38,2.51,2.51,0,0,0,.08.57.35.35,0,0,0,0,.12.16.16,0,0,0,.12,0h.17a.13.13,0,0,1,.09.09.33.33,0,0,1-.1.25.55.55,0,0,1-.3.2.56.56,0,0,0-.22.13.41.41,0,0,1-.14.1.15.15,0,0,1-.15-.06.68.68,0,0,1-.11-.28,2.11,2.11,0,0,1-.06-.42c0-.16,0-.4,0-.7a1.85,1.85,0,0,1-.06.2,3.29,3.29,0,0,1-.25.74,1.09,1.09,0,0,1,.08.15l.06.17a1.1,1.1,0,0,1,0,.35.66.66,0,0,1-.09.25l-.24.26a.59.59,0,0,1-.14.11c-.06,0-.13,0-.22-.13a.57.57,0,0,1-.16-.25.73.73,0,0,1,0-.21.66.66,0,0,0,0-.33.35.35,0,0,0-.13-.15.39.39,0,0,1-.14-.21.49.49,0,0,1,0-.11.13.13,0,0,1,0-.08.66.66,0,0,1,.16-.13c.1-.07.16-.11.2-.11a.22.22,0,0,1,.13,0A.45.45,0,0,1,67,48.77Z"/><path class="cls-1" d="M64.79,49.84a.59.59,0,0,0,0-.08.11.11,0,0,0,0-.08c0-.06-.1-.2-.29-.43a1.36,1.36,0,0,1-.32-.6.88.88,0,0,1,.32-.73,1.39,1.39,0,0,1,.87-.43,1.22,1.22,0,0,1,.52,0c.13.05.2.12.21.23a.54.54,0,0,1-.15.4c-.11.16-.21.24-.3.25s-.19-.06-.3-.2-.2-.22-.28-.21A.08.08,0,0,0,65,48a.15.15,0,0,0,0,.1,1.28,1.28,0,0,0,.34.7,1.11,1.11,0,0,1,.31.46.47.47,0,0,1,0,.23,1,1,0,0,1-.16.26,2.58,2.58,0,0,1-.49.5,1.14,1.14,0,0,1-.39.23.41.41,0,0,1-.21,0c-.08,0-.12-.08-.12-.14a.93.93,0,0,1,0-.42.21.21,0,0,1,.19-.16.37.37,0,0,1,.18,0A.29.29,0,0,1,64.79,49.84Z"/><path class="cls-1" d="M75.89,53.9V51.64h-.81v-.46h2.16v.46h-.8V53.9Z"/><path class="cls-1" d="M77.59,53.9V51.18h.82l.5,1.85.48-1.85h.83V53.9h-.51V51.76l-.54,2.14h-.53l-.54-2.14V53.9Z"/><path class="cls-2" d="M49.37,42.89a3.38,3.38,0,0,0-.06,2.49,3.21,3.21,0,0,0,2,1.39A5.18,5.18,0,0,0,51,44.24,3.35,3.35,0,0,0,49.37,42.89Z"/><path class="cls-2" d="M52.68,44.65a3.28,3.28,0,0,0-.06,2.49,3.22,3.22,0,0,0,2,1.39A5.07,5.07,0,0,0,54.33,46,3.33,3.33,0,0,0,52.68,44.65Z"/><path class="cls-2" d="M50.72,47.94a4.81,4.81,0,0,0-2.43.85A4.27,4.27,0,0,0,51,50.09h0a3.24,3.24,0,0,0,2.29-1.16,5,5,0,0,0-2.51-1Z"/><path class="cls-2" d="M46.84,45.51a3.19,3.19,0,0,0-.54,0,5.2,5.2,0,0,0-2.09.51,4.18,4.18,0,0,0,2.49,1.69,2.6,2.6,0,0,0,.4,0,3.4,3.4,0,0,0,2.07-.83A5,5,0,0,0,46.84,45.51Z"/><path class="cls-2" d="M46.53,40.4a3.32,3.32,0,0,0-.4,2.46,3.22,3.22,0,0,0,1.81,1.66A5,5,0,0,0,48,42,3.45,3.45,0,0,0,46.53,40.4Z"/><path class="cls-2" d="M44.88,41.69a5.16,5.16,0,0,0,.52-2.49,3.43,3.43,0,0,0-1.12-1.82,3.29,3.29,0,0,0-.86,2.34A3.17,3.17,0,0,0,44.88,41.69Z"/><path class="cls-2" d="M43.25,36.13a3.39,3.39,0,0,0-.65-2,3.32,3.32,0,0,0-1.4,2,3.18,3.18,0,0,0,.94,2.28A5.17,5.17,0,0,0,43.25,36.13Z"/><path class="cls-2" d="M43.39,42.41a3.26,3.26,0,0,0-1-.15,5.91,5.91,0,0,0-1.66.27,4.39,4.39,0,0,0,2.26,2,2.83,2.83,0,0,0,.71.1,3.57,3.57,0,0,0,1.84-.58A4.71,4.71,0,0,0,43.39,42.41Z"/><path class="cls-2" d="M42.2,41a4.71,4.71,0,0,0-1.53-2.21,4.78,4.78,0,0,0-2.59-.68,4.29,4.29,0,0,0,1.54,2.58,2.81,2.81,0,0,0,1.57.44A4,4,0,0,0,42.2,41Z"/><path class="cls-2" d="M39.84,37.27a4.72,4.72,0,0,0-1.21-2.41,4.73,4.73,0,0,0-2.46-1,4.32,4.32,0,0,0,1.16,2.78,3,3,0,0,0,2,.7Z"/><path class="cls-2" d="M41.77,32.65a3.39,3.39,0,0,0-.34-2.11,3.23,3.23,0,0,0-1.68,1.82,3.14,3.14,0,0,0,.59,2.39A5.1,5.1,0,0,0,41.77,32.65Z"/><path class="cls-2" d="M40.87,29a3.55,3.55,0,0,0,.07-2.15,3.28,3.28,0,0,0-2,1.48,3.15,3.15,0,0,0,.12,2.45A5.09,5.09,0,0,0,40.87,29Z"/><path class="cls-2" d="M38.41,26.45A5.14,5.14,0,0,0,40.53,25,3.34,3.34,0,0,0,41,23,3.32,3.32,0,0,0,38.75,24,3.2,3.2,0,0,0,38.41,26.45Z"/><path class="cls-2" d="M38.44,33.05a4.68,4.68,0,0,0-.86-2.54,4.81,4.81,0,0,0-2.31-1.38A4.35,4.35,0,0,0,36.05,32,3.2,3.2,0,0,0,38.44,33.05Z"/><path class="cls-2" d="M37.55,28.58a4.65,4.65,0,0,0-.47-2.65A4.57,4.57,0,0,0,35,24.22a4.27,4.27,0,0,0,.33,3A3.25,3.25,0,0,0,37.55,28.58Z"/><path class="cls-2" d="M37.53,23.88a4.91,4.91,0,0,0,0-2.69,4.87,4.87,0,0,0-1.71-2.07,4.25,4.25,0,0,0-.24,3A3.17,3.17,0,0,0,37.53,23.88Z"/><path class="cls-2" d="M42.33,19.45a4.11,4.11,0,0,0-1-.13,2.56,2.56,0,0,0-1.43.38,3.11,3.11,0,0,0-1.14,2.17,5.14,5.14,0,0,0,2.48-.62A3.11,3.11,0,0,0,42.33,19.45Z"/><path class="cls-2" d="M42.35,15.58a2.24,2.24,0,0,0-1,.21,3.12,3.12,0,0,0-1.45,2,6.92,6.92,0,0,0,.89.06,3.85,3.85,0,0,0,1.64-.3,3.09,3.09,0,0,0,1.39-1.61A3.86,3.86,0,0,0,42.35,15.58Z"/><path class="cls-2" d="M44.21,12.11a2.09,2.09,0,0,0-.79.15,3,3,0,0,0-1.59,1.86,6.58,6.58,0,0,0,1.32.14,2.77,2.77,0,0,0,2.73-1.7A4,4,0,0,0,44.21,12.11Z"/><path class="cls-2" d="M38.16,19.48a5.18,5.18,0,0,0,.68-2.6,4.93,4.93,0,0,0-1.16-2.43,4.35,4.35,0,0,0-1,2.85A3.32,3.32,0,0,0,38.16,19.48Z"/><path class="cls-2" d="M41,12.7a4.76,4.76,0,0,0-.67-2.6,4.4,4.4,0,0,0-1.51,2.6,3.34,3.34,0,0,0,1,2.43A5.06,5.06,0,0,0,41,12.7Z"/><path class="cls-2" d="M44,8.71a4.61,4.61,0,0,0-.25-2.64A4.26,4.26,0,0,0,41.89,8.4a3.29,3.29,0,0,0,.61,2.54A4.64,4.64,0,0,0,44,8.71Z"/><path class="cls-2" d="M48.65,10.08a3.5,3.5,0,0,0-2.07-.85l-.27,0a3.12,3.12,0,0,0-2,1.47,5.26,5.26,0,0,0,2.07.53,2,2,0,0,0,.42,0A3,3,0,0,0,48.65,10.08Z"/><path class="cls-2" d="M49.42,6.73a3.26,3.26,0,0,0-2.17,1.16,4.92,4.92,0,0,0,2.4.88,3.16,3.16,0,0,0,2-.84A3.32,3.32,0,0,0,49.42,6.73Z"/><path class="cls-2" d="M53,4.87H52.8a3.31,3.31,0,0,0-2.08,1A5,5,0,0,0,53,6.91h.14a3.53,3.53,0,0,0,1.88-.68A3.21,3.21,0,0,0,53,4.87Z"/><path class="cls-2" d="M47.46,5.8a4.62,4.62,0,0,0,.21-2.65,4.14,4.14,0,0,0-2.26,2,3.14,3.14,0,0,0,.17,2.59A4.76,4.76,0,0,0,47.46,5.8Z"/><path class="cls-2" d="M51.3,3.67a4.71,4.71,0,0,0,.78-2.57,4.32,4.32,0,0,0-2.64,1.46A3.22,3.22,0,0,0,49,5.13,4.8,4.8,0,0,0,51.3,3.67Z"/><path class="cls-2" d="M56.77,2.71c.42,0,.84-.08,1.27-.1.72,0,1.44,0,2.16,0s1.45,0,2.18-.06v0a10.79,10.79,0,0,0-2.18-.3,13.46,13.46,0,0,0-2.2.11l-1.11.15c0-.07.05-.13.07-.19A15.78,15.78,0,0,0,55.28,2c.37-.12.75-.23,1.12-.33.56-.13,1.13-.23,1.69-.37s1.11-.28,1.68-.45v0A7.32,7.32,0,0,0,58,.94a10.81,10.81,0,0,0-1.69.46A16,16,0,0,0,54.69,2a3.68,3.68,0,0,0-1.22.16,1.42,1.42,0,0,0-.82,1.5A24.11,24.11,0,0,0,50.9,47.48l0,0,.55.25.31.15h0c.57.27,1.19.56,1.54.74a20.16,20.16,0,0,0,2.79,1.15,14.25,14.25,0,0,0,5.48.22c.3,0-.34-.39-.66-.52a8.43,8.43,0,0,0-2.24.11,11.15,11.15,0,0,1-2.61-.24,23.18,23.18,0,0,1-3.72-1.63c-.16-.06-.31-.14-.46-.21A23.7,23.7,0,0,1,53,4a4.44,4.44,0,0,0,1.37.23A3.06,3.06,0,0,0,55.47,4,3,3,0,0,0,56,3.66q.73,0,1.47,0c.54,0,1.07.09,1.61.11s1.07,0,1.62,0v0a6.8,6.8,0,0,0-1.6-.39,9,9,0,0,0-1.64,0c-.4,0-.81,0-1.22.08A3,3,0,0,0,56.77,2.71Z"/><path class="cls-3" d="M51.54,19.26h8.19a.67.67,0,0,0,.67-.67v-.68H50.87v.68A.67.67,0,0,0,51.54,19.26Z"/><path class="cls-3" d="M64.23,19.26h8.19a.67.67,0,0,0,.67-.67v-.68H63.56v.68A.67.67,0,0,0,64.23,19.26Z"/><path class="cls-3" d="M59.73,34.34H51.54a.67.67,0,0,0-.67.67v.68H60.4V35A.67.67,0,0,0,59.73,34.34Z"/><path class="cls-3" d="M72.42,34.34H64.23a.67.67,0,0,0-.67.67v.68h9.53V35A.67.67,0,0,0,72.42,34.34Z"/><path class="cls-3" d="M77.77,28.91l-2.92-3.64c.06,0,.11-.08.11-.13s-.12-.18-.29-.22v-.35l.15,0v-.28a1.05,1.05,0,0,0-.7,0v.28l.15,0v0H70V21.24h.9a.67.67,0,0,0,.67-.67V19.9H65.08v.67a.67.67,0,0,0,.67.67h.9v3.35H57.31V21.24h.9a.67.67,0,0,0,.67-.67V19.9H52.39v.67a.67.67,0,0,0,.68.67H54v3.35H49.69v0l.16,0v-.28a1.08,1.08,0,0,0-.71,0v.28l.15,0v.35c-.17,0-.29.12-.29.22s0,.09.11.13l-2.93,3.65c-.2.06-.32.12-.32.18h0a1.54,1.54,0,0,0,.89.61,8.61,8.61,0,0,0,2.88.43,6.54,6.54,0,0,0,2.1-.3,3.08,3.08,0,0,0,1.37-.68s0-.06,0-.07S53,29,52.8,28.91l-2.39-3H54v6.46h-.9a.67.67,0,0,0-.67.67v.68h6.49v-.68a.67.67,0,0,0-.67-.67h-.9V28.22h9.34v4.17h-.9a.67.67,0,0,0-.67.67v.68h6.49v-.68a.67.67,0,0,0-.67-.67H70V25.93h3.55l-2.39,3c-.21.06-.33.12-.33.18h0a1.58,1.58,0,0,0,.89.61,8.66,8.66,0,0,0,2.88.43,6.6,6.6,0,0,0,2.11-.3,3.2,3.2,0,0,0,1.37-.68s0-.06,0-.07S78,29,77.77,28.91Zm-28.48-.26a22.46,22.46,0,0,0-2.5.15l2.5-3.12Zm2.91.15a22.67,22.67,0,0,0-2.51-.15V25.93h.21Zm14.45-1.93H57.31v-.94h9.34Zm7.62,1.78a22.51,22.51,0,0,0-2.51.15l2.3-2.87h.21Zm.4,0v-3l2.5,3.12A22.63,22.63,0,0,0,74.67,28.65Z"/><path class="cls-2" d="M7.71,69.23c-.64.68-1.27,1.42-1.9,2.21S4.56,73.1,3.94,74l-.85,1.23q-1.57,2.3-1.65,2.49a.46.46,0,0,0-.05.1.48.48,0,0,1-.18.28.52.52,0,0,1-.15.07l-.2,0a2.16,2.16,0,0,0-.38.08,1.23,1.23,0,0,1-.28.05.18.18,0,0,1-.15-.06.36.36,0,0,1,0-.19,1,1,0,0,1,.1-.46.82.82,0,0,1,.27-.34,6.89,6.89,0,0,0,1-1.3L2,75.16q2.81-3.82,4.47-5.77c1.1-1.29,1.8-1.94,2.1-1.94a.35.35,0,0,1,.26.1.68.68,0,0,1,.14.31c0,.21.07.4.11.57s.07.27.07.28a17.06,17.06,0,0,1-.51,1.79c-.34,1.09-.62,2.14-.86,3.17.9-1.27,1.63-2.23,2.19-2.89a8,8,0,0,1,1.43-1.41,2.81,2.81,0,0,1,.47-.43.76.76,0,0,1,.37-.12.45.45,0,0,1,.41.24,1.47,1.47,0,0,1,.14.7,9.67,9.67,0,0,1-.56,2.11l-.28.86c-.15.47-.25.84-.32,1.09a2.72,2.72,0,0,0-.09.55.43.43,0,0,0,.06.24.2.2,0,0,0,.18.09.48.48,0,0,0,.36-.24c.13-.16.23-.24.31-.24a.22.22,0,0,1,.17.06.21.21,0,0,1,.07.17.72.72,0,0,1-.11.31,2.4,2.4,0,0,1-.29.41,2.12,2.12,0,0,1-.64.51,1.51,1.51,0,0,1-.61.23h-.24l-.2,0-.2,0a.46.46,0,0,1-.41-.26A1.42,1.42,0,0,1,9.88,75,17.15,17.15,0,0,1,11,71.59c.23-.6.42-1.07.55-1.41A26.34,26.34,0,0,0,9.27,73L8,74.65a2.87,2.87,0,0,1-.63.63.93.93,0,0,1-.55.22.74.74,0,0,1-.43-.21.55.55,0,0,1-.25-.4l.45-2.11a16.09,16.09,0,0,1,.44-1.72C7.24,70.48,7.46,69.87,7.71,69.23Z"/><path class="cls-2" d="M17.31,73.79a12.17,12.17,0,0,1-.92,1.29,2.86,2.86,0,0,1-.7.67.65.65,0,0,1-.17.09l-.17.07-.17.11a1.21,1.21,0,0,1-.5.24A.63.63,0,0,1,14.2,76a.79.79,0,0,1-.25-.48,5.69,5.69,0,0,1,.1-.57c.07-.31.15-.64.25-1a15,15,0,0,1,.51-1.47,2.55,2.55,0,0,1,.41-.77.69.69,0,0,1,.21-.16l.13-.06.12-.1a1,1,0,0,1,.56-.27c.12,0,.23.1.35.29a1.14,1.14,0,0,1,.17.42,4.9,4.9,0,0,1-.35.89l-.05.13c-.09.18-.2.42-.34.72a4.09,4.09,0,0,0-.37,1,.23.23,0,0,0,0,.13.19.19,0,0,0,.12,0c.18,0,.56-.48,1.13-1.43q.46-.78.75-1.23a1,1,0,0,1,.41-.32,1.18,1.18,0,0,1,.41-.17.35.35,0,0,1,.3.21,1.27,1.27,0,0,1,.11.56,6,6,0,0,1-.2,1.24,6.11,6.11,0,0,0-.2,1.16,1.56,1.56,0,0,0,.06.41,1.1,1.1,0,0,1,.05.27c0,.14-.13.33-.4.56a1.19,1.19,0,0,1-.65.33.46.46,0,0,1-.35-.22.63.63,0,0,1-.18-.37s.05-.41.16-1.1C17.24,74.27,17.28,74,17.31,73.79Z"/><path class="cls-2" d="M22.4,72.42a.37.37,0,0,0-.08.15.32.32,0,0,0,0,.14,2.66,2.66,0,0,0,.43.82,2.32,2.32,0,0,1,.42,1.15,1.58,1.58,0,0,1-.73,1.24,2.58,2.58,0,0,1-1.65.56,2.11,2.11,0,0,1-.92-.16.48.48,0,0,1-.33-.45,1.06,1.06,0,0,1,.36-.68c.24-.25.44-.38.59-.38s.33.14.5.43.31.44.44.44a.16.16,0,0,0,.15-.07.33.33,0,0,0,.05-.19,2.3,2.3,0,0,0-.44-1.33,1.91,1.91,0,0,1-.45-.88.85.85,0,0,1,.1-.4,2,2,0,0,1,.35-.44,5.11,5.11,0,0,1,1-.77,1.81,1.81,0,0,1,.76-.32.62.62,0,0,1,.37.13.35.35,0,0,1,.18.27,2,2,0,0,1-.11.76.39.39,0,0,1-.38.23.87.87,0,0,1-.32-.06A.65.65,0,0,1,22.4,72.42Z"/><path class="cls-2" d="M25,73.33h-.11a.74.74,0,0,1-.28,0s-.06-.07-.06-.14.09-.17.25-.32a6.9,6.9,0,0,1,.68-.55c.44-.89.74-1.45.88-1.69a1.15,1.15,0,0,1,.35-.42l.16,0a.58.58,0,0,0,.17-.05l.19-.09a.78.78,0,0,1,.33-.12.27.27,0,0,1,.2.07.51.51,0,0,1,.13.21.5.5,0,0,0,0,.12.44.44,0,0,1,0,.09,3.06,3.06,0,0,1-.33.67A8.58,8.58,0,0,0,27,72.23l.37,0c.33,0,.5.1.51.22a.77.77,0,0,1-.22.42,1.27,1.27,0,0,0-.11.15l-.06.08a.46.46,0,0,1-.43.22h-.58a3.72,3.72,0,0,0-.33.72,1.72,1.72,0,0,0-.12.58.58.58,0,0,0,.13.4.53.53,0,0,0,.39.13,1.81,1.81,0,0,0,.58-.12,1.75,1.75,0,0,1,.42-.13.24.24,0,0,1,.27.27c0,.17-.23.4-.7.69a2.81,2.81,0,0,1-1.49.44,1.05,1.05,0,0,1-.84-.42,1.41,1.41,0,0,1-.35-.92,2.79,2.79,0,0,1,.23-.77C24.86,73.83,25,73.54,25,73.33Z"/><path class="cls-2" d="M32.29,74.49a4.51,4.51,0,0,1-.82.78,3,3,0,0,1-.84.45c-.3.11-.59.2-.87.28a3.67,3.67,0,0,1-.51.11.54.54,0,0,1-.44-.26,1,1,0,0,1-.17-.59,1.45,1.45,0,0,1,.14-.52,7.23,7.23,0,0,1,.47-.8,5.27,5.27,0,0,1,.89-1.07,8.58,8.58,0,0,1,1.27-1,5.26,5.26,0,0,1,1-.5,2.4,2.4,0,0,1,.82-.19,1.93,1.93,0,0,1,.85.19c.24.13.37.28.37.43a5.22,5.22,0,0,1-.14.58c-.1.34-.18.65-.25.94l-.33,1.47a6.35,6.35,0,0,0-.12.74.69.69,0,0,0,.06.26.55.55,0,0,1,.06.19.32.32,0,0,1-.13.23.44.44,0,0,1-.32.13.59.59,0,0,1-.19,0,.63.63,0,0,0-.2,0,.3.3,0,0,0-.12,0l-.11,0a.36.36,0,0,1-.34-.28,2.6,2.6,0,0,1-.1-.86c0-.1,0-.2,0-.31S32.27,74.64,32.29,74.49Zm-1.76.59a1.58,1.58,0,0,0,.81-.44,6.8,6.8,0,0,0,1.06-1.12,8.53,8.53,0,0,0,.63-.93,1.53,1.53,0,0,0,.24-.57.06.06,0,0,0,0-.06s-.05,0-.09,0a1.71,1.71,0,0,0-.77.42,8.32,8.32,0,0,0-1.12,1.06,5.58,5.58,0,0,0-.63.85,1.5,1.5,0,0,0-.22.65.23.23,0,0,0,0,.13S30.48,75.08,30.53,75.08Z"/><path class="cls-2" d="M38.34,73.64a4.89,4.89,0,0,0-.76,1.19c-.23.49-.37.76-.4.81a2.06,2.06,0,0,1-.52.44,1.24,1.24,0,0,1-.54.24.72.72,0,0,1-.51-.29.83.83,0,0,1-.26-.5c0-.1.08-.21.23-.31a1.89,1.89,0,0,0,.31-.27,1.59,1.59,0,0,0,.26-.65,5.26,5.26,0,0,0,.09-1,.43.43,0,0,0,0-.23A.3.3,0,0,0,36,73a.65.65,0,0,1-.31-.07.23.23,0,0,1-.11-.19c0-.14.1-.27.28-.41a1.16,1.16,0,0,1,.61-.22A1,1,0,0,0,36.9,72a.78.78,0,0,1,.29-.12.27.27,0,0,1,.25.18,1.34,1.34,0,0,1,.08.52,3.78,3.78,0,0,1-.09.75,12.33,12.33,0,0,1-.3,1.24l.18-.33A6.26,6.26,0,0,1,38.06,73a1.67,1.67,0,0,1-.08-.3,3,3,0,0,1,0-.32,1.77,1.77,0,0,1,.1-.63.82.82,0,0,1,.25-.39l.54-.36a.72.72,0,0,1,.27-.13c.12,0,.23.1.35.31a1.21,1.21,0,0,1,.17.51,3.07,3.07,0,0,1-.17.36,1.17,1.17,0,0,0-.18.56.47.47,0,0,0,.16.31.63.63,0,0,1,.15.43,1,1,0,0,1,0,.2.32.32,0,0,1-.08.12,1,1,0,0,1-.35.17,1.19,1.19,0,0,1-.38.11.4.4,0,0,1-.23-.09A.68.68,0,0,1,38.34,73.64Z"/><path class="cls-2" d="M43.37,71.44a7.34,7.34,0,0,0-.66-1.4,3,3,0,0,0-.76-.87,2.19,2.19,0,0,0-.72-.34c-.29-.09-.44-.19-.44-.28s.16-.25.48-.4a2.11,2.11,0,0,1,.8-.23,1.79,1.79,0,0,1,.81.26,3.63,3.63,0,0,1,.86.67,3.79,3.79,0,0,1,.8,1.28,4.5,4.5,0,0,1,.27,1.59,4.73,4.73,0,0,1-.21,1.39A6.4,6.4,0,0,1,44,74.49a4.45,4.45,0,0,1-.72.76.81.81,0,0,0-.13.11,3.88,3.88,0,0,1-1,.66,2.2,2.2,0,0,1-.88.24,1,1,0,0,1-.8-.31,1.22,1.22,0,0,1-.29-.85,3.76,3.76,0,0,1,.15-.78,4.57,4.57,0,0,1,.29-.82,3.6,3.6,0,0,1,1-1.11A7.33,7.33,0,0,1,43.37,71.44Zm.13.6a5.83,5.83,0,0,0-1.27,1.46,2.8,2.8,0,0,0-.5,1.33.43.43,0,0,0,.09.3.32.32,0,0,0,.25.09,1.27,1.27,0,0,0,1-.73,3.17,3.17,0,0,0,.46-1.69c0-.12,0-.25,0-.37S43.52,72.18,43.5,72Z"/><path class="cls-2" d="M52.49,76.24A40.09,40.09,0,0,0,58.66,75q2.25-.7,2.25-1.38,0-.42-.6-.63a5.52,5.52,0,0,0-1.75-.21H57.7l-.65,0A6.58,6.58,0,0,1,56,72.73a1.71,1.71,0,0,1-.67-.25.87.87,0,0,1-.24-.24,2.66,2.66,0,0,0-.28-.29.86.86,0,0,0-.53-.17H54a.52.52,0,0,1-.33-.16.61.61,0,0,1-.11-.38,1.64,1.64,0,0,1,.37-1,4.81,4.81,0,0,1,1-1,10.17,10.17,0,0,1,1.82-1.05,20.82,20.82,0,0,1,2.32-.87A12.79,12.79,0,0,1,60.51,67a7.6,7.6,0,0,1,1.15-.11,1.45,1.45,0,0,1,.72.14.51.51,0,0,1,.23.47q0,.24-.45.72c-.15.16-.27.29-.34.38a1.65,1.65,0,0,0-.18.25c-.13.22-.28.33-.43.33a.25.25,0,0,1-.2-.1.41.41,0,0,1-.08-.25.25.25,0,0,1,0-.08v-.09a.24.24,0,0,0-.06-.18.46.46,0,0,0-.23,0,3.84,3.84,0,0,0-.61.07l-1,.19c-.63.14-1.18.27-1.64.4a10.69,10.69,0,0,0-1.14.35,4.29,4.29,0,0,0-1.14.57.81.81,0,0,0-.39.6.47.47,0,0,0,.35.43,3.25,3.25,0,0,0,1.1.14l.77,0,1.15,0a10,10,0,0,1,3.35.4,1.36,1.36,0,0,1,1,1.29,1.51,1.51,0,0,1-.21.77,1.92,1.92,0,0,1-.61.63l-.32.19a15.31,15.31,0,0,0-1.31.91,5.46,5.46,0,0,1-1.71.9l-.2.06c-1.52.49-3,.89-4.4,1.2a17.11,17.11,0,0,1-2.92.45.84.84,0,0,1-.43-.08.23.23,0,0,1-.15-.22c0-.13.18-.33.54-.58a2.12,2.12,0,0,0,.61-.51.51.51,0,0,0,0-.1,1,1,0,0,1,.3-.43,9.23,9.23,0,0,1,1-.71,1.47,1.47,0,0,1,.55-.27.28.28,0,0,1,.16,0,.16.16,0,0,1,.06.12c0,.11-.16.31-.49.6Z"/><path class="cls-2" d="M65.43,75.13a.94.94,0,0,0,.37.37,1,1,0,0,0,.52.13,1.38,1.38,0,0,0,.7-.21,2.14,2.14,0,0,1,.4-.21.24.24,0,0,1,.18.06.2.2,0,0,1,.07.16c0,.19-.21.39-.63.61a2.56,2.56,0,0,1-1.11.34,4.22,4.22,0,0,1-.73-.1,5.37,5.37,0,0,0-.83-.09.68.68,0,0,1-.58-.36,1.69,1.69,0,0,1-.24-1,3.09,3.09,0,0,1,.31-1.16,4.81,4.81,0,0,1,.77-1.21,5.1,5.1,0,0,1,1.18-1,2.12,2.12,0,0,1,1-.4.61.61,0,0,1,.52.25,1.19,1.19,0,0,1,.19.7,1.56,1.56,0,0,1-.14.63s0,0,0,0a1.31,1.31,0,0,0-.08.33,1.31,1.31,0,0,1-.08.33,2.91,2.91,0,0,1-.69,1A3.55,3.55,0,0,1,65.43,75.13Zm-.16-.55a3.54,3.54,0,0,0,1-1,2,2,0,0,0,.4-1.09.42.42,0,0,0,0-.22.14.14,0,0,0-.13-.08c-.28,0-.56.24-.82.72A3.7,3.7,0,0,0,65.27,74.58Z"/><path class="cls-2" d="M70.53,75.13a1,1,0,0,0,.38.37,1,1,0,0,0,.52.13,1.38,1.38,0,0,0,.7-.21,1.85,1.85,0,0,1,.4-.21.28.28,0,0,1,.18.06.24.24,0,0,1,.07.16c0,.19-.22.39-.64.61a2.49,2.49,0,0,1-1.1.34,4.42,4.42,0,0,1-.74-.1,5.14,5.14,0,0,0-.82-.09.68.68,0,0,1-.59-.36,1.78,1.78,0,0,1-.23-1A2.91,2.91,0,0,1,69,73.72a4.54,4.54,0,0,1,.77-1.21,5,5,0,0,1,1.17-1,2.19,2.19,0,0,1,1-.4.6.6,0,0,1,.52.25,1.12,1.12,0,0,1,.19.7,1.41,1.41,0,0,1-.14.63l0,0a2.22,2.22,0,0,0-.07.33,1.8,1.8,0,0,1-.09.33,2.74,2.74,0,0,1-.68,1A3.48,3.48,0,0,1,70.53,75.13Zm-.15-.55a3.54,3.54,0,0,0,1-1,2.06,2.06,0,0,0,.4-1.09.42.42,0,0,0,0-.22.16.16,0,0,0-.13-.08c-.29,0-.56.24-.82.72A3.47,3.47,0,0,0,70.38,74.58Z"/><path class="cls-2" d="M76.89,71.44a8,8,0,0,0-.66-1.4,3.18,3.18,0,0,0-.76-.87,2.19,2.19,0,0,0-.72-.34c-.3-.09-.44-.19-.44-.28s.16-.25.48-.4a2.06,2.06,0,0,1,.8-.23,1.83,1.83,0,0,1,.81.26,3.63,3.63,0,0,1,.86.67,3.79,3.79,0,0,1,.8,1.28,5,5,0,0,1,.06,3,6.4,6.4,0,0,1-.61,1.38,4.45,4.45,0,0,1-.72.76.81.81,0,0,0-.13.11,4.06,4.06,0,0,1-1,.66,2.2,2.2,0,0,1-.88.24A1,1,0,0,1,74,76a1.22,1.22,0,0,1-.29-.85,3.76,3.76,0,0,1,.15-.78,4.57,4.57,0,0,1,.29-.82,3.6,3.6,0,0,1,1-1.11A7.33,7.33,0,0,1,76.89,71.44ZM77,72a6,6,0,0,0-1.26,1.46,2.8,2.8,0,0,0-.5,1.33.49.49,0,0,0,.08.3.36.36,0,0,0,.26.09,1.27,1.27,0,0,0,1-.73,3.16,3.16,0,0,0,.45-1.69c0-.12,0-.25,0-.37S77,72.18,77,72Z"/><path class="cls-2" d="M87.85,73.83A5.36,5.36,0,0,1,89,73.29a3.11,3.11,0,0,1,1-.16,3.38,3.38,0,0,1,.83.11,6.44,6.44,0,0,1,1,.4l.22.12A1.8,1.8,0,0,0,93,74c.08,0,.16.08.22.24a1.55,1.55,0,0,1,.09.55,1.09,1.09,0,0,1-.2.58.55.55,0,0,1-.43.3,3.73,3.73,0,0,1-1.1-.47l-.73-.37a4.45,4.45,0,0,0-1-.36,3.6,3.6,0,0,0-.94-.13,2.69,2.69,0,0,0-1.07.21,2.76,2.76,0,0,0-.91.63,6,6,0,0,0-.54.66c-.23.3-.4.45-.52.45a.32.32,0,0,1-.2-.07.24.24,0,0,1-.07-.18,20.52,20.52,0,0,1,2-3.55l.09-.15c.12-.19.27-.44.47-.74a2.41,2.41,0,0,0,.39-.73.72.72,0,0,0-.08-.24.75.75,0,0,1-.07-.28c0-.12.23-.44.71-.95.33-.35.61-.65.82-.9l.33-.38q1.1-1.29,1.74-1.29c.09,0,.18.11.26.32a1.61,1.61,0,0,1,.12.56,1.23,1.23,0,0,1-.15.55,3.19,3.19,0,0,1-.45.65c-1,1.14-1.81,2.09-2.42,2.86A20.85,20.85,0,0,0,87.85,73.83Z"/><path class="cls-2" d="M97.73,74.49a4.51,4.51,0,0,1-.82.78,2.93,2.93,0,0,1-.83.45c-.31.11-.6.2-.88.28a3.67,3.67,0,0,1-.51.11.54.54,0,0,1-.44-.26,1,1,0,0,1-.17-.59,1.45,1.45,0,0,1,.14-.52,7.23,7.23,0,0,1,.47-.8,5.27,5.27,0,0,1,.89-1.07,8.58,8.58,0,0,1,1.27-1,5.26,5.26,0,0,1,1-.5,2.4,2.4,0,0,1,.82-.19,1.93,1.93,0,0,1,.85.19c.24.13.37.28.37.43a5.22,5.22,0,0,1-.14.58c-.1.34-.18.65-.25.94-.13.57-.24,1.06-.32,1.47a5.28,5.28,0,0,0-.13.74.69.69,0,0,0,.06.26.44.44,0,0,1,.07.19.34.34,0,0,1-.14.23.44.44,0,0,1-.32.13.59.59,0,0,1-.19,0,.58.58,0,0,0-.2,0,.3.3,0,0,0-.12,0l-.11,0c-.15,0-.26-.09-.34-.28a2.6,2.6,0,0,1-.1-.86c0-.1,0-.2,0-.31S97.71,74.64,97.73,74.49ZM96,75.08a1.54,1.54,0,0,0,.81-.44,6.8,6.8,0,0,0,1.06-1.12,8.53,8.53,0,0,0,.63-.93,1.53,1.53,0,0,0,.24-.57.06.06,0,0,0,0-.06s-.05,0-.09,0a1.71,1.71,0,0,0-.77.42,8.32,8.32,0,0,0-1.12,1.06,5.58,5.58,0,0,0-.63.85,1.5,1.5,0,0,0-.22.65.23.23,0,0,0,0,.13S95.93,75.08,96,75.08Z"/><path class="cls-2" d="M103.65,74.19A19.23,19.23,0,0,1,102,76.05a1.46,1.46,0,0,1-.86.43.39.39,0,0,1-.32-.11.5.5,0,0,1-.1-.35,2.24,2.24,0,0,1,.11-.62c.07-.27.19-.64.36-1.13s.37-1,.54-1.45a5.17,5.17,0,0,1,.29-.68,1.65,1.65,0,0,1,.44-.38,1.12,1.12,0,0,1,.51-.25c.12,0,.22.09.32.26a1,1,0,0,1,.14.39,8.67,8.67,0,0,1-.39.91c-.26.57-.5,1.14-.72,1.72a9.51,9.51,0,0,0,1.31-1.31,2.53,2.53,0,0,0,.57-1,.83.83,0,0,1,.4-.53,1.2,1.2,0,0,1,.58-.26.31.31,0,0,1,.24.12.4.4,0,0,1,.1.28,4.41,4.41,0,0,1-.27,1,4,4,0,0,0-.28,1.33,1.24,1.24,0,0,0,.15.64c.1.17.21.26.34.26a.62.62,0,0,0,.4-.23,1.64,1.64,0,0,0,.36-.57,2.86,2.86,0,0,1-.24-.79,5.72,5.72,0,0,1-.09-1,1.36,1.36,0,0,1,.32-.92.9.9,0,0,1,.7-.37c.14,0,.25.12.35.35a2.1,2.1,0,0,1,.15.82v.55a3.71,3.71,0,0,1-.09,1,.68.68,0,0,1-.31.39,4.88,4.88,0,0,1-1.06,1.43,1.83,1.83,0,0,1-1.18.5.87.87,0,0,1-.44-.1,1.38,1.38,0,0,1-.42-.35,1.08,1.08,0,0,1-.22-.32,1.75,1.75,0,0,1-.05-.47V75c0-.15,0-.29,0-.42S103.63,74.31,103.65,74.19Z"/><path class="cls-2" d="M111.74,73.27a11.17,11.17,0,0,0-1.09,1.7c-.31.6-.47.91-.49.93l-.38.15a1.29,1.29,0,0,1-.36.09.44.44,0,0,1-.42-.21,2.34,2.34,0,0,1-.12-.94c0-.83,0-1.52.05-2.08a4.22,4.22,0,0,1,.14-1,1.38,1.38,0,0,1,.52-.5,1.39,1.39,0,0,1,.62-.27.31.31,0,0,1,.27.14.58.58,0,0,1,.11.34.22.22,0,0,1,0,.1.56.56,0,0,1-.07.13c-.07.41-.13.82-.17,1.22s0,.82,0,1.23v.35a15.4,15.4,0,0,1,1.08-1.73,7.06,7.06,0,0,1,.92-1.11,1.4,1.4,0,0,1,.4-.18,1.51,1.51,0,0,1,.48-.1.45.45,0,0,1,.28.09.22.22,0,0,1,.11.2,4.33,4.33,0,0,1-.38,1l-.36.84q-.87,2.07-1.26,3.15a12.45,12.45,0,0,0-.51,1.75,1.65,1.65,0,0,0,.84-.83c.21-.42.35-.62.43-.62a.16.16,0,0,1,.13.07.29.29,0,0,1,0,.19,1.86,1.86,0,0,1-.23.68,4,4,0,0,1-.57.86,3.09,3.09,0,0,1-.7.59,1.25,1.25,0,0,1-.57.25c-.12,0-.24-.11-.35-.34a1.73,1.73,0,0,1-.16-.76,8,8,0,0,1,.48-1.74C110.7,76,111.15,74.75,111.74,73.27Z"/><path class="cls-2" d="M116.05,75.13a1,1,0,0,0,.38.37,1,1,0,0,0,.52.13,1.38,1.38,0,0,0,.7-.21,1.85,1.85,0,0,1,.4-.21.28.28,0,0,1,.18.06.24.24,0,0,1,.07.16c0,.19-.22.39-.64.61a2.49,2.49,0,0,1-1.1.34,4.42,4.42,0,0,1-.74-.1,5.14,5.14,0,0,0-.82-.09.68.68,0,0,1-.59-.36,1.78,1.78,0,0,1-.23-1,2.91,2.91,0,0,1,.31-1.16,4.54,4.54,0,0,1,.77-1.21,5,5,0,0,1,1.17-1,2.19,2.19,0,0,1,1-.4.6.6,0,0,1,.52.25,1.12,1.12,0,0,1,.19.7,1.41,1.41,0,0,1-.14.63s0,0,0,0a2.22,2.22,0,0,0-.07.33,1.8,1.8,0,0,1-.09.33,2.74,2.74,0,0,1-.68,1A3.48,3.48,0,0,1,116.05,75.13Zm-.15-.55a3.54,3.54,0,0,0,1-1,2.06,2.06,0,0,0,.4-1.09.42.42,0,0,0,0-.22.16.16,0,0,0-.13-.08c-.29,0-.56.24-.82.72A3.47,3.47,0,0,0,115.9,74.58Z"/><path class="cls-2" d="M122.21,73.64a4.9,4.9,0,0,0-.77,1.19c-.23.49-.36.76-.4.81a2.06,2.06,0,0,1-.52.44,1.17,1.17,0,0,1-.53.24.72.72,0,0,1-.52-.29.83.83,0,0,1-.26-.5c0-.1.08-.21.23-.31a1.54,1.54,0,0,0,.31-.27,1.59,1.59,0,0,0,.26-.65,4.55,4.55,0,0,0,.1-1,.41.41,0,0,0,0-.23.3.3,0,0,0-.2-.05.6.6,0,0,1-.3-.07.21.21,0,0,1-.11-.19c0-.14.09-.27.28-.41a1.1,1.1,0,0,1,.6-.22,1,1,0,0,0,.43-.13.85.85,0,0,1,.29-.12.26.26,0,0,1,.25.18,1.34,1.34,0,0,1,.08.52,4.57,4.57,0,0,1-.08.75c-.06.3-.16.71-.31,1.24l.18-.33a6.26,6.26,0,0,1,.75-1.19,1.63,1.63,0,0,1-.07-.3,1.58,1.58,0,0,1,0-.32,1.77,1.77,0,0,1,.1-.63.77.77,0,0,1,.26-.39,6.31,6.31,0,0,1,.53-.36.9.9,0,0,1,.27-.13c.12,0,.23.1.35.31a1.08,1.08,0,0,1,.17.51,1.86,1.86,0,0,1-.17.36,1.14,1.14,0,0,0-.17.56.49.49,0,0,0,.15.31.63.63,0,0,1,.15.43.56.56,0,0,1,0,.2.29.29,0,0,1-.07.12,1.21,1.21,0,0,1-.35.17,1.29,1.29,0,0,1-.39.11.37.37,0,0,1-.22-.09A.59.59,0,0,1,122.21,73.64Z"/><path class="cls-2" d="M126.46,72.42a.6.6,0,0,0-.09.15.32.32,0,0,0,0,.14,2.94,2.94,0,0,0,.43.82,2.26,2.26,0,0,1,.43,1.15,1.61,1.61,0,0,1-.73,1.24,2.62,2.62,0,0,1-1.66.56,2.11,2.11,0,0,1-.92-.16.48.48,0,0,1-.33-.45,1.06,1.06,0,0,1,.36-.68,1,1,0,0,1,.6-.38c.16,0,.33.14.49.43s.32.44.45.44a.15.15,0,0,0,.14-.07.27.27,0,0,0,.05-.19,2.23,2.23,0,0,0-.44-1.33,1.91,1.91,0,0,1-.45-.88.86.86,0,0,1,.11-.4,1.94,1.94,0,0,1,.34-.44,5.44,5.44,0,0,1,1-.77,1.87,1.87,0,0,1,.76-.32.6.6,0,0,1,.37.13.35.35,0,0,1,.18.27,1.81,1.81,0,0,1-.11.76.38.38,0,0,1-.38.23.81.81,0,0,1-.31-.06A.65.65,0,0,1,126.46,72.42Z"/></g></g></svg>